# xmcd
#
# Track frame offsets:
#	150
#	13239
#	23389
#	38338
#	53106
#	70636
#	84625
#	102766
#	120084
#	133527
#	148802
#	162364
#	177947
#	193263
#	214388
#	229898
#	246955
#	265855
#	284220
#	297964
#
# Disc length: 4159 seconds
#
# Revision: 1
# Processed by: cddbd v1.5.1PL0 Copyright (c) Steve Scherf et al.
# Submitted via: EasyCDDAExtractor 7.0.5.3
#
DISCID=23103d14
DTITLE=Eero Raittinen - Uhkapeluri - Eero raittinen 60 CD2
DYEAR=1900
DGENRE=
TTITLE0=My prayer
TTITLE1=Kiddio
TTITLE2=That lucky old sun
TTITLE3=If you live
TTITLE4=Empty club blues
TTITLE5=Who can i turn to
TTITLE6=Crawfish
TTITLE7=Hobo
TTITLE8=Gunfight at moosejaw
TTITLE9=Man that's all
TTITLE10=Can't tearit up enuff
TTITLE11=The long black veil
TTITLE12=Best of me
TTITLE13=Full time lover
TTITLE14=Ganglord John
TTITLE15=Greasy tuesday
TTITLE16=Pearl the kitchen maid
TTITLE17=Rain
TTITLE18=Steady rolling man
TTITLE19=Kiddio
EXTD=
EXTT0=
EXTT1=
EXTT2=
EXTT3=
EXTT4=
EXTT5=
EXTT6=
EXTT7=
EXTT8=
EXTT9=
EXTT10=
EXTT11=
EXTT12=
EXTT13=
EXTT14=
EXTT15=
EXTT16=
EXTT17=
EXTT18=
EXTT19=
PLAYORDER=
